<svg preserveAspectRatio="none" overflow="visible" style="display: block;" width="13.9928" height="13.9988" viewBox="0 0 13.9928 13.9988" fill="none" xmlns="http://www.w3.org/2000/svg">
<g id="Container">
<g id="Vector">
<path d="M12.9053 7.38758C12.4553 7.84258 12.1753 8.44258 12.1203 9.07758C12.0103 10.3476 11.4553 11.5426 10.5553 12.4426C8.47531 14.5176 5.09531 14.5176 3.02031 12.4426L1.44531 10.8676L2.24531 10.0726C2.05031 8.49758 2.55531 6.84758 3.76031 5.64258C4.66031 4.74258 5.85531 4.18758 7.12531 4.07758C7.16458 4.07417 7.20375 4.06984 7.24281 4.06458C7.14894 3.75792 7.1404 3.43149 7.2181 3.12034C7.2958 2.8092 7.4568 2.5251 7.68381 2.29858C8.00127 1.98196 8.42678 1.7972 8.87486 1.78143C9.32294 1.76567 9.76039 1.92005 10.0993 2.21358L11.4203 0.892578L12.9953 2.46758C14.3253 3.79758 14.3253 5.96758 12.9953 7.29758L12.9053 7.38758Z" fill="#FBB8AB"/>
<path fill-rule="evenodd" clip-rule="evenodd" d="M11.4362 5.9175C10.9862 6.3725 10.7062 6.9725 10.6512 7.6075C10.5418 8.87882 9.98973 10.0714 9.09125 10.9775C7.01125 13.0525 3.63125 13.0575 1.55625 10.9775C-0.51875 8.8975 -0.51875 5.5175 1.55625 3.4425C2.45625 2.5425 3.65125 1.9875 4.91625 1.8725C5.5541 1.81672 6.15217 1.53892 6.60625 1.0875L6.69625 0.9975C8.02625 -0.3325 10.1962 -0.3325 11.5262 0.9975C12.8562 2.3275 12.8562 4.4975 11.5262 5.8275L11.4362 5.9175ZM8.33125 2.9425C7.99625 3.2775 7.99625 3.8175 8.33125 4.1525C8.66625 4.4875 9.21125 4.4875 9.54625 4.1575C9.88125 3.8225 9.88125 3.2775 9.54625 2.9425C9.38502 2.78159 9.16654 2.69122 8.93875 2.69122C8.71096 2.69122 8.49248 2.78159 8.33125 2.9425Z" fill="#F4F4F4"/>
<path d="M2.83784 3.39693C2.50984 3.65693 2.55934 4.18593 2.95084 4.36743L5.41084 5.53243C5.41351 5.53276 5.41617 5.5336 5.41884 5.53493C5.42151 5.53626 5.42384 5.5371 5.42584 5.53743C5.91084 5.76243 6.48084 5.67743 6.86084 5.29743L7.23084 4.92743C7.46584 4.69243 7.55584 4.34743 7.46084 4.03243C7.37918 3.7614 7.37231 3.47333 7.44096 3.19871C7.50962 2.92409 7.65124 2.67315 7.85084 2.47243C8.00143 2.32101 8.1816 2.20222 8.38011 2.12348C8.57862 2.04475 8.79122 2.00774 9.00466 2.01478C9.21811 2.02182 9.42781 2.07274 9.6207 2.16438C9.8136 2.25602 9.98555 2.38642 10.1258 2.54743C10.6408 3.12743 10.6408 4.01743 10.1258 4.60243C9.70084 5.08243 9.06084 5.23743 8.50084 5.06743C8.34459 5.01912 8.17808 5.01455 8.01941 5.05422C7.86074 5.09389 7.71598 5.17627 7.60084 5.29243L7.23584 5.65743C6.85584 6.03743 6.77084 6.61243 7.00084 7.09743C7.00084 7.09976 7.00184 7.10143 7.00384 7.10243C7.00384 7.10243 7.00601 7.1051 7.00634 7.10743L8.17634 9.56243C8.21727 9.64903 8.27922 9.72401 8.35654 9.78053C8.43387 9.83706 8.52411 9.87334 8.61904 9.88606C8.71398 9.89878 8.81058 9.88755 8.90006 9.85338C8.98954 9.81921 9.06905 9.76319 9.13134 9.69043C9.55358 9.0471 9.80957 8.30904 9.87634 7.54243C9.94634 6.72243 10.3063 5.95243 10.8863 5.36743L10.9763 5.27743C11.226 5.02835 11.4229 4.73161 11.5556 4.40486C11.6882 4.07811 11.7537 3.72803 11.7483 3.37543C11.7432 3.00082 11.658 2.63165 11.4984 2.29272C11.3387 1.95378 11.1084 1.65295 10.8228 1.41043C9.78084 0.52443 8.20884 0.60143 7.22784 1.57543L7.16134 1.64243C6.57789 2.22471 5.80765 2.58239 4.98634 2.65243C4.2196 2.71897 3.48136 2.97479 2.83784 3.39693Z" fill="#E66C6C"/>
<path d="M1.47438 4.783C1.63338 4.548 1.93888 4.4655 2.19638 4.5825L5.20138 5.9925C5.78638 6.2675 6.26138 6.7425 6.54138 7.3225L7.96638 10.3125C8.09138 10.5775 7.99638 10.8925 7.75138 11.0475C7.28966 11.3418 6.77812 11.5494 6.24188 11.66C5.50407 11.8126 4.7399 11.7794 4.01811 11.5634C3.29631 11.3474 2.63954 10.9553 2.10688 10.4225C0.575877 8.892 0.365377 6.54 1.47438 4.783Z" fill="#E66C6C"/>
</g>
</g>
</svg>
